<?xml version="1.0" encoding="utf-8"?>
<!-- Generator: Adobe Illustrator 16.0.3, SVG Export Plug-In . SVG Version: 6.00 Build 0)  -->
<!DOCTYPE svg PUBLIC "-//W3C//DTD SVG 1.1//EN" "http://www.w3.org/Graphics/SVG/1.1/DTD/svg11.dtd">
<svg version="1.1" id="Layer_1" xmlns="http://www.w3.org/2000/svg" xmlns:xlink="http://www.w3.org/1999/xlink" x="0px" y="0px"
	 width="300px" height="1000px" viewBox="0 0 300 1000" enable-background="new 0 0 300 1000" xml:space="preserve">
<g>
	<g>
		<defs>
			<rect id="SVGID_1_" y="0" width="300" height="1000"/>
		</defs>
		<clipPath id="SVGID_2_">
			<use xlink:href="#SVGID_1_"  overflow="visible"/>
		</clipPath>
		<path id="XMLID_140_" clip-path="url(#SVGID_2_)" fill="#FFFFFF" d="M335.344,943.938c0,0-89.46,1.894-191.198,30.215
			c-101.739,28.299-209.896-3.227-291.237-82.686V-366.166H335.15V943.938H335.344z"/>
	</g>
	<g>
		<defs>
			<rect id="SVGID_3_" y="0" width="300" height="1000"/>
		</defs>
		<clipPath id="SVGID_4_">
			<use xlink:href="#SVGID_3_"  overflow="visible"/>
		</clipPath>
		<path id="XMLID_139_" clip-path="url(#SVGID_4_)" fill="#F3F3F3" d="M335.344,945.078c0,0-91.352,1.504-193.091,29.633
			c-101.728,28.127-208.003-1.506-289.161-81.158V-366.166h482.252V945.078z"/>
	</g>
	<g>
		<defs>
			<rect id="SVGID_5_" y="0" width="300" height="1000"/>
		</defs>
		<clipPath id="SVGID_6_">
			<use xlink:href="#SVGID_5_"  overflow="visible"/>
		</clipPath>
		
			<linearGradient id="XMLID_2_" gradientUnits="userSpaceOnUse" x1="2536.5078" y1="-4093.6199" x2="6706.3325" y2="-1999.5269" gradientTransform="matrix(0.0852 0.0091 0.0091 -0.0852 -244.3462 -20.1047)">
			<stop  offset="0.3493" style="stop-color:#F3F3F3;stop-opacity:0.1"/>
			<stop  offset="0.3545" style="stop-color:#F2F2F2;stop-opacity:0.1073"/>
			<stop  offset="0.5841" style="stop-color:#DCDBDB;stop-opacity:0.4248"/>
			<stop  offset="0.8035" style="stop-color:#D0CFCF;stop-opacity:0.7282"/>
			<stop  offset="1" style="stop-color:#CCCBCB"/>
		</linearGradient>
		<path id="XMLID_138_" clip-path="url(#SVGID_6_)" fill="url(#XMLID_2_)" d="M335.344,949.809c0,0-96.621,1.678-198.37,29.805
			c-101.739,28.129-202.724,4.15-283.882-75.503V-366.166h482.252V949.809z"/>
	</g>
	<g>
		<defs>
			<rect id="SVGID_7_" y="0" width="300" height="1000"/>
		</defs>
		<clipPath id="SVGID_8_">
			<use xlink:href="#SVGID_7_"  overflow="visible"/>
		</clipPath>
		<g id="XMLID_124_" opacity="0.18" clip-path="url(#SVGID_8_)">
			<g id="XMLID_137_" opacity="0.5">
				
					<linearGradient id="SVGID_9_" gradientUnits="userSpaceOnUse" x1="-11374.7422" y1="-3750.2781" x2="-5694.9844" y2="-3750.2781" gradientTransform="matrix(-0.0853 -0.0089 0.0089 -0.0853 -602.0101 540.1868)">
					<stop  offset="0.3749" style="stop-color:#E6E6E5"/>
					<stop  offset="0.597" style="stop-color:#DCDCDB;stop-opacity:0.9528"/>
					<stop  offset="0.8451" style="stop-color:#CDCCCC;stop-opacity:0.9"/>
				</linearGradient>
				<path fill="url(#SVGID_9_)" d="M-146.908,896.949c89.093,78.514,191.208,109.286,266.517,92.857
					c76.815-16.795,141.372-54.364,215.928-39.998v-13.032c-80.6-48.901-125.889-57.59-201.015-45.504
					C3.903,912.434-66.126,917.701-146.715,877.875L-146.908,896.949z"/>
			</g>
			<g id="XMLID_136_">
				
					<linearGradient id="SVGID_10_" gradientUnits="userSpaceOnUse" x1="-7337.1211" y1="-2278.7454" x2="-10316.1875" y2="-3020.1731" gradientTransform="matrix(-0.0835 -0.0192 0.0192 -0.0835 -566.3055 546.0292)">
					<stop  offset="0.3749" style="stop-color:#E6E6E5"/>
					<stop  offset="0.597" style="stop-color:#DCDCDB;stop-opacity:0.9528"/>
					<stop  offset="0.8451" style="stop-color:#CDCCCC;stop-opacity:0.9"/>
				</linearGradient>
				<path fill="url(#SVGID_10_)" d="M-146.908,896.949c88.9,78.706,191.208,109.286,266.517,92.686
					c76.815-16.817,141.372-53.998,215.928-40.041v-13.012c-80.6-48.879-125.889-57.566-201.015-45.48
					c-130.619,21.117-200.648,26.406-281.237-13.42L-146.908,896.949z"/>
			</g>
			
				<linearGradient id="XMLID_3_" gradientUnits="userSpaceOnUse" x1="-11369.1172" y1="-3649.7976" x2="-5686.7578" y2="-3649.7976" gradientTransform="matrix(-0.0853 -0.0089 0.0089 -0.0853 -602.0101 540.1868)">
				<stop  offset="0.3749" style="stop-color:#E6E6E5"/>
				<stop  offset="0.597" style="stop-color:#DCDCDB;stop-opacity:0.9528"/>
				<stop  offset="0.8451" style="stop-color:#CDCCCC;stop-opacity:0.9"/>
			</linearGradient>
			<path id="XMLID_135_" opacity="0.47" fill="url(#XMLID_3_)" enable-background="new    " d="M335.344,946.41
				c-29.269-23.418-77.762-57.763-154.963-59.267c-92.857-1.893-168.359,29.806-299.925-3.397c-9.43-2.474-18.87-5.679-27.547-9.074
				v12.473c21.698,16.213,46.999,34.32,66.622,45.849C40.139,1003.01,138.855,963.57,203.8,946.775
				c19.44-5.096,70.771-24.147,131.351,2.086L335.344,946.41z"/>
			<g id="XMLID_134_" opacity="0.4">
				
					<linearGradient id="SVGID_11_" gradientUnits="userSpaceOnUse" x1="-11358.5547" y1="-3651.8245" x2="-5683.5625" y2="-3651.8245" gradientTransform="matrix(-0.0853 -0.0089 0.0089 -0.0853 -602.0101 540.1868)">
					<stop  offset="0.3749" style="stop-color:#E6E6E5"/>
					<stop  offset="0.597" style="stop-color:#DCDCDB;stop-opacity:0.9528"/>
					<stop  offset="0.8451" style="stop-color:#CDCCCC;stop-opacity:0.9"/>
				</linearGradient>
				<path fill="url(#SVGID_11_)" d="M-146.908,901.293c90.975,61.719,191.015,97.373,258.582,81.16
					c73.805-15.099,139.866-55.117,222.744-35.311c-88.729-90.02-192.917-79.268-305.408-59.633
					c-67.761,11.893-125.705,3.031-176.101-15.484L-146.908,901.293z"/>
			</g>
			<g id="XMLID_131_" opacity="0.7">
				
					<linearGradient id="SVGID_12_" gradientUnits="userSpaceOnUse" x1="-11195.2656" y1="-2384.4417" x2="-5598.0625" y2="-2384.4417" gradientTransform="matrix(-0.0834 -0.0199 0.0199 -0.0834 -564.03 546.6927)">
					<stop  offset="0.3749" style="stop-color:#E6E6E5"/>
					<stop  offset="0.597" style="stop-color:#DCDCDB;stop-opacity:0.9528"/>
					<stop  offset="0.8451" style="stop-color:#CDCCCC;stop-opacity:0.9"/>
				</linearGradient>
				<path fill="url(#SVGID_12_)" d="M-146.908,902.605c85.126,54.17,164.585,64.558,219.895,61.72
					c110.041-5.656,173.457-66.063,254.636-18.688c-61.159-91.523-201.789-88.126-274.646-73.611
					c-69.083,13.785-134.006,13.593-199.691-6.215L-146.908,902.605z"/>
			</g>
			
				<linearGradient id="XMLID_4_" gradientUnits="userSpaceOnUse" x1="-11289.3828" y1="-2503.7917" x2="-5617.7734" y2="-2503.7917" gradientTransform="matrix(-0.0834 -0.0199 0.0199 -0.0834 -564.03 546.6927)">
				<stop  offset="0.3749" style="stop-color:#E6E6E5"/>
				<stop  offset="0.597" style="stop-color:#DCDCDB;stop-opacity:0.9528"/>
				<stop  offset="0.8451" style="stop-color:#CDCCCC;stop-opacity:0.9"/>
			</linearGradient>
			<path id="XMLID_130_" opacity="0.5" fill="url(#XMLID_4_)" enable-background="new    " d="M335.344,946.41
				c-29.269-23.418-77.762-57.591-154.963-59.267c-92.857-1.893-168.359,29.806-299.925-3.397c-9.43-2.474-18.87-5.679-27.547-9.074
				v12.473c21.698,16.213,46.999,34.32,66.622,45.849C40.139,1003.01,138.855,963.57,203.8,946.775
				c19.44-5.096,70.771-24.147,131.351,2.086L335.344,946.41z"/>
			<g id="XMLID_129_" opacity="0.8">
				
					<linearGradient id="SVGID_13_" gradientUnits="userSpaceOnUse" x1="7040.0703" y1="13043.332" x2="6092.5044" y2="12979.5254" gradientTransform="matrix(0.0856 -0.0036 0.0036 0.0856 -519.6057 -156.2955)">
					<stop  offset="0.3749" style="stop-color:#4B555B;stop-opacity:0.616"/>
					<stop  offset="0.4868" style="stop-color:#525D62;stop-opacity:0.4932"/>
					<stop  offset="0.6768" style="stop-color:#687176;stop-opacity:0.2846"/>
					<stop  offset="0.8451" style="stop-color:#818A8F;stop-opacity:0.1"/>
				</linearGradient>
				<path fill="url(#SVGID_13_)" d="M314.957,927.143c-75.115-67.396-131.372-29.246-181.381-14.709
					c-78.524,23.009-90.416,65.673-171.574,47.181l0.376,0.173c87.578,34.17,136.651,23.977,184.025,2.45
					C224.917,926.971,256.83,900.348,314.957,927.143z"/>
			</g>
			<g id="XMLID_128_" opacity="0.7">
				
					<linearGradient id="SVGID_14_" gradientUnits="userSpaceOnUse" x1="5539.5469" y1="13363.875" x2="8997.6172" y2="13363.875" gradientTransform="matrix(0.0856 -0.0036 0.0036 0.0856 -519.6057 -156.2955)">
					<stop  offset="0.3749" style="stop-color:#4B555B;stop-opacity:0.616"/>
					<stop  offset="0.4868" style="stop-color:#525D62;stop-opacity:0.4932"/>
					<stop  offset="0.6768" style="stop-color:#687176;stop-opacity:0.2846"/>
					<stop  offset="0.8451" style="stop-color:#818A8F;stop-opacity:0.1"/>
				</linearGradient>
				<path fill="url(#SVGID_14_)" d="M299.279,969.033c-56.234-40.945-113.049-44.343-141.359-28.859
					c-38.311,20.558-88.148,56.041-154.587,42.838c0,0,49.837,17.375,114.953,5.289c13.021-2.451,26.612-6.988,40.579-12.646
					C223.412,949.809,251.732,949.809,299.279,969.033z"/>
			</g>
			<g id="XMLID_127_" opacity="0.7">
				
					<linearGradient id="SVGID_15_" gradientUnits="userSpaceOnUse" x1="3716.5" y1="14132.7441" x2="7141.3438" y2="14132.7441" gradientTransform="matrix(0.0844 -0.0147 0.0147 0.0844 -481.2895 -160.3729)">
					<stop  offset="0.3749" style="stop-color:#4B555B;stop-opacity:0.616"/>
					<stop  offset="0.4868" style="stop-color:#525D62;stop-opacity:0.4932"/>
					<stop  offset="0.6768" style="stop-color:#687176;stop-opacity:0.2846"/>
					<stop  offset="0.8451" style="stop-color:#818A8F;stop-opacity:0.1"/>
				</linearGradient>
				<path fill="url(#SVGID_15_)" d="M333.085,949.809c-40.386-33.611-128.92-33.031-183.843-8.129
					c-71.159,32.084-109.286,35.095-109.286,35.095c55.299,13.783,113.437,3.593,153.437-9.807
					c58.707-19.633,90.791-24.902,130.252-16.43C330.074,949.594,333.085,949.809,333.085,949.809z"/>
			</g>
			<g id="XMLID_126_" opacity="0.5">
				
					<linearGradient id="SVGID_16_" gradientUnits="userSpaceOnUse" x1="4784.8281" y1="13437.8555" x2="6957.4863" y2="13437.8555" gradientTransform="matrix(0.0856 -0.0036 0.0036 0.0856 -519.6057 -156.2955)">
					<stop  offset="0.3749" style="stop-color:#4B555B;stop-opacity:0.616"/>
					<stop  offset="0.4868" style="stop-color:#525D62;stop-opacity:0.4932"/>
					<stop  offset="0.6768" style="stop-color:#687176;stop-opacity:0.2846"/>
					<stop  offset="0.8451" style="stop-color:#818A8F;stop-opacity:0.1"/>
				</linearGradient>
				<path fill="url(#SVGID_16_)" d="M-62.535,955.658c22.462-1.722,41.708-0.775,55.299,2.815
					c19.064,4.924,33.408,16.043,53.794,22.258c20.956,6.431,48.138,7.957,71.535,6.431c5.667-0.365,12.086-1.699,0.57,0.944
					c-15.096,3.398-42.471,5.851-82.674,2.086C11.075,987.355-31.956,973.205-62.535,955.658z"/>
			</g>
			<g id="XMLID_125_" opacity="0.4">
				
					<linearGradient id="SVGID_17_" gradientUnits="userSpaceOnUse" x1="5048.8086" y1="14856.4258" x2="6317.0576" y2="15148.1533" gradientTransform="matrix(0.0856 -0.0037 0.0032 0.0769 -521.1353 -185.9894)">
					<stop  offset="0.3749" style="stop-color:#4B555B;stop-opacity:0.616"/>
					<stop  offset="0.4868" style="stop-color:#525D62;stop-opacity:0.4932"/>
					<stop  offset="0.6768" style="stop-color:#687176;stop-opacity:0.2846"/>
					<stop  offset="0.8451" style="stop-color:#818A8F;stop-opacity:0.1"/>
				</linearGradient>
				<path fill="url(#SVGID_17_)" d="M31.461,984.344c5.097-0.773,9.624-1.891,13.397-3.396
					c25.483-10.579,59.46-51.911,125.91-38.709c0,0-56.826-30.579-138.178,1.334c-43.406,14.536-73.04,15.268-102.49,8.859
					C-63.664,955.27-24.225,977.721,31.461,984.344z"/>
			</g>
		</g>
	</g>
	<g>
		<defs>
			<rect id="SVGID_18_" y="0" width="300" height="1000"/>
		</defs>
		<clipPath id="SVGID_19_">
			<use xlink:href="#SVGID_18_"  overflow="visible"/>
		</clipPath>
		<g id="XMLID_116_" clip-path="url(#SVGID_19_)">
			<g id="XMLID_123_">
				
					<linearGradient id="SVGID_20_" gradientUnits="userSpaceOnUse" x1="3794.4375" y1="735.2249" x2="9413.6406" y2="735.2249" gradientTransform="matrix(0.083 0.0213 0.0213 -0.083 -482.4336 34.1847)">
					<stop  offset="0.3749" style="stop-color:#E6E6E5;stop-opacity:0.7"/>
					<stop  offset="0.597" style="stop-color:#DCDCDB;stop-opacity:0.4166"/>
					<stop  offset="0.8451" style="stop-color:#CDCCCC;stop-opacity:0.1"/>
				</linearGradient>
				<path fill="url(#SVGID_20_)" d="M335.537,91.924C177.35,155.912,14.667,218.953-147.091,278.982V35.496
					C14.849,11.519,177.93-15.846,335.537-44.727V91.924z"/>
			</g>
			<g id="XMLID_122_">
				
					<linearGradient id="SVGID_21_" gradientUnits="userSpaceOnUse" x1="6948.918" y1="1117.1555" x2="5541.9995" y2="1022.4126" gradientTransform="matrix(0.0851 0.0103 0.0103 -0.0851 -520.3502 27.0164)">
					<stop  offset="0.3749" style="stop-color:#E6E6E5;stop-opacity:0.7"/>
					<stop  offset="0.597" style="stop-color:#DCDCDB;stop-opacity:0.4166"/>
					<stop  offset="0.8451" style="stop-color:#CDCCCC;stop-opacity:0.1"/>
				</linearGradient>
				<path fill="url(#SVGID_21_)" d="M335.537,400.15c0,0-320.494-212.528-482.628-298.215l0.183-468.102h482.252L335.537,400.15z"/>
			</g>
			<g id="XMLID_120_">
				
					<linearGradient id="SVGID_22_" gradientUnits="userSpaceOnUse" x1="3771.6641" y1="1816.7854" x2="9980.1875" y2="1816.7854" gradientTransform="matrix(0.0851 0.0103 0.0103 -0.0851 -520.3502 27.0164)">
					<stop  offset="0.3749" style="stop-color:#E6E6E5;stop-opacity:0.7"/>
					<stop  offset="0.597" style="stop-color:#DCDCDB;stop-opacity:0.4166"/>
					<stop  offset="0.8451" style="stop-color:#CDCCCC;stop-opacity:0.1"/>
				</linearGradient>
				<path fill="url(#SVGID_22_)" d="M-147.091,255.198C18.247,203.103,335.537,75.506,335.537,75.506l-0.193-441.672h-482.435
					V255.198z"/>
			</g>
			<g id="XMLID_118_">
				
					<linearGradient id="SVGID_23_" gradientUnits="userSpaceOnUse" x1="4255.8281" y1="-211.5974" x2="10034.6875" y2="-211.5974" gradientTransform="matrix(0.0851 0.0103 0.0103 -0.0851 -520.3502 27.0164)">
					<stop  offset="0.3749" style="stop-color:#E6E6E5;stop-opacity:0.7"/>
					<stop  offset="0.597" style="stop-color:#DCDCDB;stop-opacity:0.4166"/>
					<stop  offset="0.8451" style="stop-color:#CDCCCC;stop-opacity:0.1"/>
				</linearGradient>
				<path fill="url(#SVGID_23_)" d="M335.537,114.387c0,0-323.516,136.844-482.628,198.939V-20.76
					C12.022-34.91,335.537-73.983,335.537-73.983V114.387z"/>
			</g>
			<g id="XMLID_117_">
				
					<linearGradient id="SVGID_24_" gradientUnits="userSpaceOnUse" x1="4731.8145" y1="-2450.9597" x2="8145.5352" y2="-1665.7229" gradientTransform="matrix(0.0851 0.0104 0.0092 -0.0764 -524.1448 56.5237)">
					<stop  offset="0.3749" style="stop-color:#E6E6E5;stop-opacity:0.7"/>
					<stop  offset="0.597" style="stop-color:#DCDCDB;stop-opacity:0.4166"/>
					<stop  offset="0.8451" style="stop-color:#CDCCCC;stop-opacity:0.1"/>
				</linearGradient>
				<path fill="url(#SVGID_24_)" d="M-146.908-366.166h482.252l0.193,1277.438c-106.835,29.074-195.735-135.307-482.628-131.736
					L-146.908-366.166z"/>
			</g>
		</g>
	</g>
</g>
</svg>
