<?xml version="1.0" encoding="utf-8"?>
<!-- Generator: Adobe Illustrator 16.0.3, SVG Export Plug-In . SVG Version: 6.00 Build 0)  -->
<!DOCTYPE svg PUBLIC "-//W3C//DTD SVG 1.1//EN" "http://www.w3.org/Graphics/SVG/1.1/DTD/svg11.dtd">
<svg version="1.1" id="Layer_1" xmlns="http://www.w3.org/2000/svg" xmlns:xlink="http://www.w3.org/1999/xlink" x="0px" y="0px"
	 width="300px" height="850px" viewBox="0 0 300 850" enable-background="new 0 0 300 850" xml:space="preserve">
<g>
	<g>
		<defs>
			<rect id="SVGID_1_" y="0" width="300" height="850"/>
		</defs>
		<clipPath id="SVGID_2_">
			<use xlink:href="#SVGID_1_"  overflow="visible"/>
		</clipPath>
		
			<linearGradient id="SVGID_3_" gradientUnits="userSpaceOnUse" x1="-9366.2676" y1="9786" x2="-5853.2842" y2="9786" gradientTransform="matrix(-0.0857 -0.002 -0.002 0.0857 -419.6798 -172.9175)">
			<stop  offset="0" style="stop-color:#8B1D57"/>
			<stop  offset="0.1564" style="stop-color:#831A50"/>
			<stop  offset="0.4726" style="stop-color:#741445"/>
			<stop  offset="0.7626" style="stop-color:#6C0F3E"/>
			<stop  offset="1" style="stop-color:#690E3C"/>
		</linearGradient>
		<path clip-path="url(#SVGID_2_)" fill="url(#SVGID_3_)" d="M-131.049,2.828v1342.586h517.553V59.837c0,0-1.506-1.141-4.172-2.839
			c-21.678-14.721-57.74-36.806-112.857-33.591C204.531,27.364,153.586,53.6,59.773,37.752C32.967,33.225,7.495,20.01,7.495,20.01
			S-20.633,7.925-29.504,2.827c0,0-3.774,0.765-5.473,1.322c-0.752,0.193-2.075,0.753-3.967,1.322
			c-1.323,0.57-2.828,1.129-4.721,1.893c-2.634,1.13-6.419,2.636-9.623,3.957c-2.828,1.141-5.279,1.894-6.226,2.27
			c0,0-3.968,0.753-10.193,1.322c-8.871,0.753-23.408,0.753-38.88-3.216C-116.146,9.817-123.877,6.979-131.049,2.828L-131.049,2.828
			z"/>
	</g>
	<g>
		<defs>
			<rect id="SVGID_4_" y="0" width="300" height="850"/>
		</defs>
		<clipPath id="SVGID_5_">
			<use xlink:href="#SVGID_4_"  overflow="visible"/>
		</clipPath>
		
			<linearGradient id="SVGID_6_" gradientUnits="userSpaceOnUse" x1="-9734.8828" y1="2364.512" x2="-2532.4844" y2="2364.512" gradientTransform="matrix(-0.0857 -0.002 -0.002 0.0857 -419.6798 -172.9175)">
			<stop  offset="0" style="stop-color:#FFFFFF;stop-opacity:0.4"/>
			<stop  offset="0.1935" style="stop-color:#FFFFFF"/>
			<stop  offset="0.7032" style="stop-color:#FFFFFF;stop-opacity:0.4"/>
			<stop  offset="1" style="stop-color:#FFFFFF"/>
		</linearGradient>
		<path opacity="0.1" clip-path="url(#SVGID_5_)" fill="url(#SVGID_6_)" enable-background="new    " d="M-141.618-5.666
			c-2.269-2.26-4.161-4.527-5.667-6.979c5.097,2.646,10,4.72,14.914,6.227c7.172-0.753,14.913-1.883,23.59-3.581
			c10.387-1.893,20.193-3.216,29.451-3.216l0,0c3.58,0,7.924,0.194,13.204,0.57c16.806,1.505,31.149,5.097,42.095,8.677
			C-15.73-1.322-6.666,1.698,2.957,5.279C55.998,25.106,79.03,33.783,127.533,30.203c17.172-2.075,34.354-5.666,51.9-10.569
			C224.186,6.979,307.408-2.451,358.762,38.881c14.902,6.419,31.525,14.913,50.75,25.676l0,0l0,0
			c-8.301-2.838-16.408-4.72-24.148-5.859c0.365,0.388,0.752,0.569,1.313,0.946l0,0l0,0c-0.947-0.377-1.871-0.753-3.012-1.129
			c-53.805-6.796-96.254,22.838-150.617,39.256c-47.01,14.344-111.933,3.215-173.468-36.805c-0.56-0.184-0.936-0.57-1.506-0.753
			C40.525,52.289,22.215,41.902,3.71,28.505c-9.054-0.377-19.064,0-30.763,1.505c-24.537,4.344-44.923,2.269-60.396-1.882
			c-9.817-1.698-20.204-5.29-30.203-12.655c-22.268,3.968-57.762-7.172-88.33-40.386C-184.09-10.193-167.671-4.15-141.618-5.666z"/>
	</g>
	<g>
		<defs>
			<rect id="SVGID_7_" y="0" width="300" height="850"/>
		</defs>
		<clipPath id="SVGID_8_">
			<use xlink:href="#SVGID_7_"  overflow="visible"/>
		</clipPath>
		
			<linearGradient id="SVGID_9_" gradientUnits="userSpaceOnUse" x1="-9734.8828" y1="2364.512" x2="-2532.4844" y2="2364.512" gradientTransform="matrix(-0.0857 -0.002 -0.002 0.0857 -419.6798 -172.9175)">
			<stop  offset="0" style="stop-color:#FFFFFF;stop-opacity:0.4"/>
			<stop  offset="0.1935" style="stop-color:#FFFFFF"/>
			<stop  offset="0.7032" style="stop-color:#FFFFFF;stop-opacity:0.4"/>
			<stop  offset="1" style="stop-color:#FFFFFF"/>
		</linearGradient>
		<path opacity="0.5" clip-path="url(#SVGID_8_)" fill="url(#SVGID_9_)" enable-background="new    " d="M-141.618-5.666
			c-2.269-2.26-4.161-4.527-5.667-6.979c5.097,2.646,10,4.72,14.914,6.227c7.172-0.753,14.913-1.883,23.59-3.581
			c10.387-1.893,20.193-3.216,29.451-3.216l0,0c3.58,0,7.924,0.194,13.204,0.57c16.806,1.505,31.149,5.097,42.095,8.677
			C-15.73-1.322-6.666,1.698,2.957,5.279C55.998,25.106,79.03,33.783,127.533,30.203c17.172-2.075,34.354-5.666,51.9-10.569
			C224.186,6.979,307.408-2.451,358.762,38.881c14.902,6.419,31.525,14.913,50.75,25.676l0,0l0,0
			c-8.301-2.838-16.408-4.72-24.148-5.859c0.365,0.388,0.752,0.569,1.313,0.946l0,0l0,0c-0.947-0.377-1.871-0.753-3.012-1.129
			c-53.805-6.796-96.254,22.838-150.617,39.256c-47.01,14.344-111.933,3.215-173.468-36.805c-0.56-0.184-0.936-0.57-1.506-0.753
			C40.525,52.289,22.215,41.902,3.71,28.505c-9.054-0.377-19.064,0-30.763,1.505c-24.537,4.344-44.923,2.269-60.396-1.882
			c-9.817-1.698-20.204-5.29-30.203-12.655c-22.268,3.968-57.762-7.172-88.33-40.386C-184.09-10.193-167.671-4.15-141.618-5.666z"/>
	</g>
	<g>
		<defs>
			<rect id="SVGID_10_" y="0" width="300" height="850"/>
		</defs>
		<clipPath id="SVGID_11_">
			<use xlink:href="#SVGID_10_"  overflow="visible"/>
		</clipPath>
		<g clip-path="url(#SVGID_11_)">
			<g opacity="0.5">
				<path fill="#F5F6F6" d="M7.678,19.258c74.556,72.471,164.595,97.2,224.98,78.89c61.934-18.87,110.428-56.622,177.24-33.407
					h-0.172C331.02,20.763,297.215,13.969,237.561,28.506C131.308,54.547,82.804,60.396,7.678,19.258z"/>
			</g>
			<g>
				
					<linearGradient id="SVGID_12_" gradientUnits="userSpaceOnUse" x1="-6044.9302" y1="1326.4768" x2="-8551.9561" y2="1950.4236" gradientTransform="matrix(-0.0848 -0.0125 -0.0125 0.0848 -367.2925 -168.5322)">
					<stop  offset="0.1549" style="stop-color:#690E3C"/>
					<stop  offset="1" style="stop-color:#690E3C;stop-opacity:0.8"/>
				</linearGradient>
				<path fill="url(#SVGID_12_)" d="M7.678,19.258c74.362,72.664,164.595,97.2,224.98,78.89
					c61.934-18.87,110.619-56.438,177.24-33.407h-0.172C331.02,20.763,297.215,13.969,237.561,28.506
					C131.308,54.547,82.804,60.396,7.678,19.258z"/>
			</g>
			<path opacity="0.47" fill="#F5F6F6" enable-background="new    " d="M386.504,59.46c-20.947-14.354-58.148-40.021-117.029-36.43
				c-64.943,3.957-115.889,30.192-209.702,14.345C32.967,32.838,7.678,19.634,7.678,19.634s51.524,35.289,82.298,50.02
				c88.147,42.085,154.961,9.055,199.327-6.235C303.064,58.697,340.268,41.332,386.504,59.46z"/>
			<g opacity="0.4">
				<path fill="#690E3C" d="M-29.321,2.074c81.352,68.331,192.522,112.114,256.131,91.353c50.793-14.72,94.576-46.234,153.65-36.987
					C313.451-1.504,241.348,11.698,163.758,31.71C84.686,52.095,22.021,29.634-29.321,2.074z"/>
			</g>
			<g opacity="0.8">
				
					<linearGradient id="SVGID_13_" gradientUnits="userSpaceOnUse" x1="-3956.0349" y1="1542.2805" x2="-4432.6855" y2="1574.38" gradientTransform="matrix(-0.0847 -0.0132 -0.0132 0.0847 -363.7735 -167.9807)">
					<stop  offset="0" style="stop-color:#690E3C"/>
					<stop  offset="0.7272" style="stop-color:#690E3C;stop-opacity:0.3"/>
				</linearGradient>
				<path fill="url(#SVGID_13_)" d="M-139.543-6.226c29.816,39.827,62.288,36.807,87.76,34.536
					c40.213-3.58,50.02-23.031,87.395-6.419l-0.183-0.183C-3.645-3.205-28.375-3.022-53.288,2.827
					C-94.62,12.462-114.061,12.269-139.543-6.226z"/>
			</g>
			<g opacity="0.5">
				
					<linearGradient id="SVGID_14_" gradientUnits="userSpaceOnUse" x1="-6023.0156" y1="1427.6321" x2="-3505.3423" y2="1427.6321" gradientTransform="matrix(-0.0847 -0.0132 -0.0132 0.0847 -363.7735 -167.9807)">
					<stop  offset="0" style="stop-color:#690E3C;stop-opacity:0.5147"/>
					<stop  offset="1" style="stop-color:#690E3C"/>
				</linearGradient>
				<path fill="url(#SVGID_14_)" d="M127.91,30.01c-50.772,10-101.738,5.473-124.576-5.655C-9.117,18.312-17.429,8.677-30.632,1.699
					c-13.591-7.172-32.096-12.074-48.321-14.16c-3.967-0.56-8.494-0.56-0.193-0.754C-65.179-13.397-37.621-9.999,2.958,5.28
					C55.998,25.106,79.03,33.783,127.91,30.01z"/>
			</g>
			<g opacity="0.7">
				
					<linearGradient id="SVGID_15_" gradientUnits="userSpaceOnUse" x1="-8921.3828" y1="1440.6331" x2="-4155.8672" y2="1440.6331" gradientTransform="matrix(-0.0847 -0.0132 -0.0132 0.0847 -363.7735 -167.9807)">
					<stop  offset="0.1549" style="stop-color:#690E3C"/>
					<stop  offset="0.6251" style="stop-color:#690E3C;stop-opacity:0.616"/>
				</linearGradient>
				<path fill="url(#SVGID_15_)" d="M-29.697,1.893C60.149,82.105,146.028,89.847,198.51,82.858
					c76.643-10,117.588-55.869,176.854-27.171C327.625-4.903,229.457,5.28,179.436,19.441C109.039,39.449,43.73,37.558-29.697,1.893
					z"/>
			</g>
			<g opacity="0.4">
				
					<linearGradient id="SVGID_16_" gradientUnits="userSpaceOnUse" x1="-5084.7896" y1="1423.3118" x2="-4068.9854" y2="1189.6503" gradientTransform="matrix(-0.0847 -0.0131 -0.0119 0.076 -370.1595 -124.9732)">
					<stop  offset="0" style="stop-color:#690E3C;stop-opacity:0.1"/>
					<stop  offset="0.7219" style="stop-color:#690E3C"/>
				</linearGradient>
				<path fill="url(#SVGID_16_)" d="M65.245,48.697C47.88,20.956-6.666-2.075-30.45,2.645c-19.064,3.773-47.944,27.559-91.728,9.43
					c0,0,34.913,28.882,95.125,18.129C16.172,24.537,38.257,33.031,65.245,48.697z"/>
			</g>
			
				<linearGradient id="SVGID_17_" gradientUnits="userSpaceOnUse" x1="-9056.5781" y1="1523.842" x2="-4618.5313" y2="1523.842" gradientTransform="matrix(-0.0847 -0.0132 -0.0132 0.0847 -363.7735 -167.9807)">
				<stop  offset="0" style="stop-color:#690E3C;stop-opacity:0.4"/>
				<stop  offset="1" style="stop-color:#690E3C"/>
			</linearGradient>
			<path opacity="0.5" fill="url(#SVGID_17_)" enable-background="new    " d="M386.504,59.46
				c-20.947-14.354-58.148-40.021-117.029-36.43c-64.943,3.957-115.889,30.192-209.702,14.345
				C32.967,32.838,7.678,19.634,7.678,19.634s51.524,35.289,82.298,50.02c88.147,42.085,154.961,9.055,199.327-6.235
				C303.064,58.515,340.268,41.332,386.504,59.46z"/>
		</g>
	</g>
</g>
</svg>
